<?xml version="1.0" encoding="utf-8"?>
<!-- Generator: Adobe Illustrator 24.1.0, SVG Export Plug-In . SVG Version: 6.00 Build 0)  -->
<svg version="1.1" id="Layer_1" xmlns="http://www.w3.org/2000/svg" xmlns:xlink="http://www.w3.org/1999/xlink" x="0px" y="0px"
	 viewBox="0 0 318.13 285.45" style="enable-background:new 0 0 318.13 285.45;" xml:space="preserve">
<style type="text/css">
	.st0{fill:#5B3483;}
	.st1{fill:none;stroke:#5B3483;stroke-miterlimit:10;stroke-dasharray:3.5061;}
	.st2{fill:#FFFFFF;stroke:#5B3483;stroke-miterlimit:10;stroke-dasharray:3.5061;}
	.st3{fill:#44286A;}
	.st4{fill:url(#SVGID_1_);}
	.st5{fill:#FFFFFF;}
	.st6{opacity:0.49;}
	.st7{fill:#DAE1F3;}
	.st8{fill:#FFFFFF;stroke:#5B3483;stroke-miterlimit:10;}
	.st9{fill:none;stroke:#364F9D;stroke-width:0.6122;stroke-miterlimit:10;}
	.st10{fill:url(#SVGID_2_);}
	.st11{fill:url(#SVGID_3_);}
	.st12{fill:url(#SVGID_4_);}
	.st13{fill:url(#SVGID_5_);}
	.st14{fill-rule:evenodd;clip-rule:evenodd;fill:#5B3483;}
	.st15{fill:#AC4090;}
	.st16{fill:url(#SVGID_6_);}
	.st17{fill:#0EBAE6;}
	.st18{fill:#70C2B3;}
	.st19{fill-rule:evenodd;clip-rule:evenodd;fill:#70C2B3;}
	.st20{fill:#45266B;}
	.st21{fill:#DBDBEF;}
	.st22{fill:#EFEEF8;}
	.st23{fill:#E0DDF0;}
	.st24{fill:none;stroke:#FFFFFF;stroke-width:0.2901;stroke-miterlimit:10;}
	.st25{clip-path:url(#SVGID_8_);}
	.st26{fill:#4A53A0;}
	.st27{fill:url(#SVGID_9_);}
	.st28{opacity:0.2;}
	.st29{fill:#FEFEFF;}
	.st30{fill:#FDFDFE;}
	.st31{fill:#FDFCFE;}
	.st32{fill:#FCFCFE;}
	.st33{fill:#FBFBFD;}
	.st34{fill:#FAFAFD;}
	.st35{fill:#F9F9FD;}
	.st36{fill:#F8F8FC;}
	.st37{fill:#F7F7FC;}
	.st38{fill:#F7F6FB;}
	.st39{fill:#F6F5FB;}
	.st40{fill:#F5F4FB;}
	.st41{fill:#F4F3FA;}
	.st42{fill:#F3F2FA;}
	.st43{fill:#F2F1FA;}
	.st44{fill:#F1F0F9;}
	.st45{fill:#F0F0F9;}
	.st46{fill:#EFEFF8;}
	.st47{fill:#EEEEF8;}
	.st48{fill:#EEEDF7;}
	.st49{fill:#EDECF7;}
	.st50{fill:#ECEBF7;}
	.st51{fill:#EBEAF6;}
	.st52{fill:#EAE9F6;}
	.st53{fill:#E9E8F5;}
	.st54{fill:#E8E7F5;}
	.st55{fill:#E7E6F4;}
	.st56{fill:#E6E5F4;}
	.st57{fill:#E6E4F4;}
	.st58{fill:#E5E4F3;}
	.st59{fill:#E4E3F3;}
	.st60{fill:#E3E2F2;}
	.st61{fill:#E2E1F2;}
	.st62{fill:#E1E0F1;}
	.st63{fill:#E0DFF1;}
	.st64{fill:#E0DEF1;}
	.st65{fill:#DFDDF0;}
	.st66{fill:#DEDCF0;}
	.st67{fill:#DDDCEF;}
	.st68{fill:#DCDBEF;}
	.st69{fill:#DBDAEE;}
	.st70{fill:#DAD9EE;}
	.st71{fill:#D9D8EE;}
	.st72{fill:#D9D7ED;}
	.st73{fill:#D8D6ED;}
	.st74{fill:#D7D5EC;}
	.st75{fill:#D6D4EC;}
	.st76{fill:#D5D4EB;}
	.st77{fill:#D4D3EB;}
	.st78{fill:#D3D2EA;}
	.st79{fill:#D2D1EA;}
	.st80{fill:#D2D0EA;}
	.st81{fill:#D1CFE9;}
	.st82{fill:#D0CEE9;}
	.st83{fill:#CFCDE8;}
	.st84{fill:#CECCE8;}
	.st85{fill:#CDCCE7;}
	.st86{fill:#CDCBE7;}
	.st87{fill:#CCCAE6;}
	.st88{fill:#CBC9E6;}
	.st89{fill:#CAC8E5;}
	.st90{fill:#C9C7E5;}
	.st91{fill:#C8C6E5;}
	.st92{fill:#C8C5E4;}
	.st93{fill:#C7C5E4;}
	.st94{fill:#C6C4E3;}
	.st95{fill:#C5C3E3;}
	.st96{fill:#C4C2E2;}
	.st97{fill:#C3C1E2;}
	.st98{fill:#C2C0E1;}
	.st99{fill:#C2BFE1;}
	.st100{fill:#C1BEE0;}
	.st101{fill:#C0BDE0;}
	.st102{fill:#BFBDDF;}
	.st103{fill:#BEBCDF;}
	.st104{fill:#BDBBDE;}
	.st105{fill:#BCBADE;}
	.st106{fill:#BBB9DD;}
	.st107{fill:#BBB8DD;}
	.st108{fill:#BAB7DC;}
	.st109{fill:#B9B6DC;}
	.st110{fill:#B8B5DB;}
	.st111{fill:#B7B5DB;}
	.st112{fill:#B6B4DB;}
	.st113{fill:#B5B3DA;}
	.st114{fill:#B4B2DA;}
	.st115{fill:#B3B1D9;}
	.st116{fill:#B3B0D9;}
	.st117{fill:#B2AFD8;}
	.st118{fill:#B1AED8;}
	.st119{fill:#B0ADD7;}
	.st120{fill:#AFADD7;}
	.st121{fill:#AEACD6;}
	.st122{fill:#ADABD6;}
	.st123{fill:#ACAAD5;}
	.st124{fill:#ABA9D5;}
	.st125{fill:#ABA8D4;}
	.st126{fill:#AAA7D4;}
	.st127{fill:#A9A7D3;}
	.st128{fill:#A8A6D3;}
	.st129{fill:#A7A5D2;}
	.st130{fill:#A6A4D2;}
	.st131{fill:#A5A3D1;}
	.st132{fill:#A5A2D1;}
	.st133{fill:#A4A1D0;}
	.st134{fill:#A3A0D0;}
	.st135{fill:#A2A0CF;}
	.st136{fill:#A19FCF;}
	.st137{fill:#A09ECE;}
	.st138{fill:#9F9DCE;}
	.st139{fill:#9F9CCD;}
	.st140{fill:#9E9BCD;}
	.st141{fill:#9D9BCC;}
	.st142{fill:#9C9ACC;}
	.st143{fill:#9B99CB;}
	.st144{fill:#9A98CB;}
	.st145{fill:#9997CA;}
	.st146{fill:#9996CA;}
	.st147{fill:#9895C9;}
	.st148{fill:#9795C9;}
	.st149{fill:#9694C8;}
	.st150{fill:#9593C8;}
	.st151{fill:#9492C7;}
	.st152{fill:#9391C7;}
	.st153{fill:#9390C6;}
	.st154{fill:#928FC6;}
	.st155{fill:#F3F3FB;}
	.st156{fill:#E3EEFA;}
	.st157{fill:none;stroke:#FFFFFF;stroke-width:0.8028;stroke-miterlimit:10;}
	.st158{fill:none;stroke:#5B3483;stroke-width:0.7759;stroke-miterlimit:10;stroke-dasharray:2.7204;}
	.st159{fill:#FFFFFF;stroke:#45266B;stroke-miterlimit:10;}
	.st160{fill:none;stroke:#858FC7;stroke-miterlimit:10;}
	.st161{fill:#E7E8F6;}
	.st162{fill:#FFFFFF;stroke:#858FC7;stroke-miterlimit:10;}
	.st163{fill:none;stroke:#5B3483;stroke-miterlimit:10;}
	.st164{opacity:0.75;fill:#E1EBF8;}
	.st165{opacity:0.75;fill:none;stroke:#5B3483;stroke-miterlimit:10;}
	.st166{opacity:0.75;fill:#F5F5FB;}
	.st167{fill:#F5F5FB;}
	.st168{fill:#858FC7;}
	.st169{fill:#FFFFFF;stroke:#858FC7;stroke-width:0.7578;stroke-miterlimit:10;}
	.st170{fill:#D5D9EF;}
	.st171{fill:none;stroke:#D5D9EF;stroke-width:0.7578;stroke-miterlimit:10;}
	.st172{fill:none;stroke:#F5F5FB;stroke-width:1.5155;stroke-miterlimit:10;}
	.st173{fill:#7B65AA;}
	.st174{fill:#B8C0E3;}
	.st175{fill:#2A245B;}
	.st176{opacity:0.75;}
	.st177{fill:#264193;}
	.st178{fill:#C2E0F7;}
	.st179{fill:none;stroke:#FFFFFF;stroke-width:1.5396;stroke-linecap:round;stroke-linejoin:round;stroke-miterlimit:10;}
	.st180{fill:#64C7EE;}
	.st181{fill:#4078BC;}
	.st182{fill:#5A3483;}
	.st183{fill:#90C8EE;}
	.st184{fill:#004D8C;}
	.st185{fill:#F2E9F3;}
	.st186{fill:#00ADE3;}
	.st187{fill:#00A8D6;}
	.st188{fill:#0968B1;}
	.st189{fill:#694A98;}
	.st190{fill:#31245A;}
	.st191{fill:#91CFCB;}
	.st192{fill:#7BC6BB;}
	.st193{fill:#7CC7BB;}
	.st194{fill:#531436;}
	.st195{fill:#B0A5C7;}
	.st196{fill:#807DAB;}
	.st197{fill:#00A99E;}
	.st198{fill:none;stroke:#B0A5C7;stroke-width:0.7787;stroke-miterlimit:10;}
	.st199{fill:#FFFFFF;stroke:#B0A5C7;stroke-width:0.3893;stroke-linecap:round;stroke-linejoin:round;stroke-miterlimit:10;}
	.st200{fill:none;stroke:#988DB5;stroke-width:0.2261;stroke-miterlimit:10;}
	.st201{fill:#4F337D;}
	.st202{fill:#7F2D51;}
	.st203{fill:#3EBFEA;}
	.st204{fill:#696A97;}
	.st205{fill:none;stroke:#988DB5;stroke-width:0.3205;stroke-linecap:round;stroke-linejoin:round;stroke-miterlimit:10;}
	.st206{fill:none;stroke:#988DB5;stroke-width:0.3986;stroke-linecap:round;stroke-linejoin:round;stroke-miterlimit:10;}
	.st207{fill:none;stroke:#988DB5;stroke-width:0.3195;stroke-linecap:round;stroke-linejoin:round;stroke-miterlimit:10;}
	.st208{fill:#988DB5;}
	.st209{fill:none;stroke:#988DB5;stroke-width:0.2632;stroke-linecap:round;stroke-linejoin:round;stroke-miterlimit:10;}
	.st210{fill:none;stroke:#988DB5;stroke-width:0.3939;stroke-linecap:round;stroke-linejoin:round;stroke-miterlimit:10;}
	.st211{fill:url(#SVGID_10_);}
	.st212{fill:url(#SVGID_11_);}
	.st213{opacity:0.3;fill:url(#SVGID_12_);}
	.st214{fill:url(#SVGID_13_);}
	.st215{fill:url(#SVGID_14_);}
	.st216{opacity:0.3;fill:url(#SVGID_15_);}
	.st217{fill:url(#SVGID_16_);}
	.st218{fill:url(#SVGID_17_);}
	.st219{opacity:0.3;fill:url(#SVGID_18_);}
	.st220{fill:url(#SVGID_19_);}
	.st221{fill:url(#SVGID_20_);}
	.st222{opacity:0.3;fill:url(#SVGID_21_);}
	.st223{fill:url(#SVGID_22_);}
	.st224{fill:url(#SVGID_23_);}
	.st225{opacity:0.3;fill:url(#SVGID_24_);}
	.st226{fill:url(#SVGID_25_);}
	.st227{fill:url(#SVGID_26_);}
	.st228{opacity:0.3;fill:url(#SVGID_27_);}
	.st229{fill:#8AD1F1;}
	.st230{fill:none;stroke:#444C9B;stroke-width:0.6368;stroke-miterlimit:10;}
	.st231{clip-path:url(#SVGID_29_);}
	.st232{fill:url(#SVGID_30_);}
	.st233{fill:url(#SVGID_31_);}
	.st234{fill:#D3DAF0;}
	.st235{fill:none;stroke:#FFFFFF;stroke-width:0.6368;stroke-miterlimit:10;}
	.st236{fill:#E4EAF8;}
	.st237{fill:#E5E9F7;}
	.st238{fill:#C3CFEB;}
	.st239{fill:none;stroke:#D3DAF0;stroke-width:0.6368;stroke-miterlimit:10;}
	.st240{opacity:0.1;fill:#004D8C;}
	.st241{fill:#E4D9E6;}
	.st242{fill:#EB5C61;}
	.st243{fill:#FAB84B;}
	.st244{fill:#0FB2AF;}
	.st245{fill:#C9B5CE;}
	.st246{fill:#D9C7DD;}
	.st247{clip-path:url(#SVGID_33_);}
	.st248{fill:#123E69;}
</style>
<polyline class="st1" points="101.18,86.69 63.73,86.69 63.73,121.08 "/>
<polyline class="st1" points="101.18,147.93 63.73,147.93 63.73,182.32 "/>
<g>
	<g>
		<g>
			<path class="st0" d="M227.91,220.09c0,0-1.37-0.68-2.95-1.27c-1.68-0.63-3.7-1.42-4.89-1.99c-2.08-1-2.26-1.65-3.04-5.07
				c-0.85-3.73-1.65-11.59-1.97-15.02h-39.44c-0.32,3.43-1.12,11.29-1.97,15.02c-0.78,3.41-0.96,4.07-3.04,5.07
				c-1.18,0.57-3.17,1.35-4.83,1.97l0,0c-1.6,0.6-2.91,1.07-2.91,1.07s-1.27,0.7,0.77,0.8h63.4
				C228.96,220.7,227.91,220.09,227.91,220.09z"/>
			<path class="st20" d="M216.28,206.08c-0.17-1.63-1.12-8.3-1.22-9.35h-39.44c-0.1,1.05,0,1.57-0.18,3.2L216.28,206.08z"/>
			<g>
				<path class="st0" d="M289.51,175.15V65.53c0-2.84-2.32-5.16-5.16-5.16H106.34c-2.84,0-5.16,2.31-5.16,5.16v109.62H289.51z"/>
				<rect x="109.93" y="69.21" class="st5" width="170.83" height="96.2"/>
				<path class="st21" d="M101.04,175.08v15.85c0,3.05,2.47,5.53,5.52,5.53h177.57c3.05,0,5.52-2.47,5.52-5.53v-15.85H101.04z"/>
				<g>
					<rect x="109.93" y="69.21" class="st21" width="170.83" height="9.54"/>
					<rect x="110.37" y="80.86" class="st22" width="170.49" height="84.27"/>
					<g>
						<rect x="197.1" y="71.69" class="st5" width="79.45" height="4.58"/>
						<rect x="189.04" y="71.69" class="st5" width="4.9" height="4.58"/>
					</g>
					<g>
						<g>
							<g>
								<rect x="176.83" y="86.91" class="st5" width="95.25" height="36.05"/>
								<g>
									<g>
										<rect x="223.49" y="93.17" class="st23" width="39.13" height="2.72"/>
									</g>
									<g>
										<rect x="223.49" y="98.99" class="st23" width="44.63" height="2.03"/>
									</g>
									<g>
										<rect x="223.3" y="103.74" class="st23" width="38.96" height="2.05"/>
									</g>
									<g>
										<rect x="223.3" y="108.33" class="st23" width="43.38" height="2.04"/>
									</g>
									<g>
										<rect x="223.3" y="113.29" class="st23" width="9.69" height="2.03"/>
									</g>
								</g>
								<rect x="179.91" y="93.31" class="st23" width="40.39" height="23.88"/>
							</g>
							<g>
								<line class="st24" x1="179.91" y1="93.31" x2="220.3" y2="117.19"/>
								<line class="st24" x1="220.3" y1="93.31" x2="179.91" y2="117.19"/>
							</g>
						</g>
						<g>
							<rect x="117.13" y="86.69" class="st5" width="53.38" height="36.25"/>
							<g>
								<g>
									<rect x="121.88" y="96.57" class="st23" width="40.13" height="2.35"/>
								</g>
								<g>
									<rect x="121.88" y="91.48" class="st23" width="45.14" height="2.35"/>
								</g>
								<g>
									<rect x="121.88" y="101.83" class="st23" width="45.78" height="2.03"/>
								</g>
								<g>
									<rect x="121.69" y="106.58" class="st23" width="39.97" height="2.05"/>
								</g>
								<g>
									<rect x="121.69" y="111.17" class="st23" width="44.5" height="2.04"/>
								</g>
								<g>
									<rect x="121.69" y="116.13" class="st23" width="9.94" height="2.03"/>
								</g>
							</g>
						</g>
					</g>
				</g>
				<g>
					<defs>
						<rect id="SVGID_7_" x="110.37" y="79.86" width="148.14" height="85.38"/>
					</defs>
					<clipPath id="SVGID_1_">
						<use xlink:href="#SVGID_7_"  style="overflow:visible;"/>
					</clipPath>
					<g style="clip-path:url(#SVGID_1_);">
						<path class="st0" d="M164.45,123.57c0,0-0.68,1.39-2.61,1.39c-1.93,0.01-6.87-1.47-4.75-6.61c1.42-3.45-1.2-6.14-1.2-6.14
							S170.1,111.79,164.45,123.57z"/>
						
							<rect x="162.14" y="124.14" transform="matrix(-0.8825 0.4703 -0.4703 -0.8825 366.8761 158.6561)" class="st26" width="2.96" height="2.03"/>
						
							<linearGradient id="SVGID_2_" gradientUnits="userSpaceOnUse" x1="216.6233" y1="205.4967" x2="288.6234" y2="319.1137" gradientTransform="matrix(0.9912 0.132 -0.132 0.9912 -4.1316 -67.0513)">
							<stop  offset="5.010000e-04" style="stop-color:#574595"/>
							<stop  offset="0.0923" style="stop-color:#5963A2"/>
							<stop  offset="0.196" style="stop-color:#5B7EAC"/>
							<stop  offset="0.3053" style="stop-color:#5F94B2"/>
							<stop  offset="0.4191" style="stop-color:#64A5B3"/>
							<stop  offset="0.539" style="stop-color:#68B2B3"/>
							<stop  offset="0.6676" style="stop-color:#6CBBB3"/>
							<stop  offset="0.8112" style="stop-color:#6FC0B2"/>
							<stop  offset="1" style="stop-color:#70C2B2"/>
						</linearGradient>
						<path class="st10" d="M168.81,142.66c-8.56-16.07-6.81-16.25-5.03-17.2c1.78-0.95,2.91-2.3,11.48,13.77
							c8.56,16.07,21.31,43.46,19.53,44.41C193,184.59,177.37,158.73,168.81,142.66z"/>
					</g>
				</g>
			</g>
		</g>
	</g>
	<g>
		<g>
			<rect x="24.56" y="168.82" class="st22" width="106.49" height="79.01"/>
			<g>
				<rect x="33.46" y="179.64" class="st5" width="89.66" height="51.62"/>
				<g>
					<polygon class="st18" points="123.12,231.26 68.87,231.07 95.04,205.91 					"/>
					<polygon class="st18" points="114.06,231.26 33.55,230.97 72.39,193.63 					"/>
				</g>
			</g>
		</g>
		<g>
			<g class="st28">
				<rect x="26.11" y="120.44" class="st5" width="114.12" height="41.58"/>
				<rect x="26.14" y="120.47" class="st29" width="114.02" height="41.49"/>
				<rect x="26.17" y="120.5" class="st30" width="113.92" height="41.41"/>
				<rect x="26.19" y="120.53" class="st31" width="113.82" height="41.32"/>
				<rect x="26.22" y="120.56" class="st32" width="113.73" height="41.24"/>
				<rect x="26.25" y="120.59" class="st33" width="113.63" height="41.15"/>
				<rect x="26.28" y="120.62" class="st34" width="113.53" height="41.07"/>
				<rect x="26.31" y="120.65" class="st35" width="113.43" height="40.98"/>
				<rect x="26.34" y="120.68" class="st36" width="113.33" height="40.9"/>
				<rect x="26.37" y="120.71" class="st37" width="113.24" height="40.81"/>
				<rect x="26.4" y="120.74" class="st38" width="113.14" height="40.72"/>
				<rect x="26.43" y="120.77" class="st39" width="113.04" height="40.64"/>
				<rect x="26.46" y="120.8" class="st40" width="112.94" height="40.55"/>
				<rect x="26.49" y="120.83" class="st41" width="112.85" height="40.47"/>
				<rect x="26.52" y="120.86" class="st42" width="112.75" height="40.38"/>
				<rect x="26.55" y="120.88" class="st43" width="112.65" height="40.3"/>
				<rect x="26.58" y="120.91" class="st44" width="112.55" height="40.21"/>
				<rect x="26.6" y="120.94" class="st45" width="112.46" height="40.13"/>
				<rect x="26.63" y="120.97" class="st46" width="112.36" height="40.04"/>
				<rect x="26.66" y="121" class="st47" width="112.26" height="39.96"/>
				<rect x="26.69" y="121.03" class="st48" width="112.16" height="39.87"/>
				<rect x="26.72" y="121.06" class="st49" width="112.07" height="39.79"/>
				<rect x="26.75" y="121.09" class="st50" width="111.97" height="39.7"/>
				<rect x="26.78" y="121.12" class="st51" width="111.87" height="39.62"/>
				<rect x="26.81" y="121.15" class="st52" width="111.77" height="39.53"/>
				<rect x="26.84" y="121.18" class="st53" width="111.68" height="39.44"/>
				<rect x="26.87" y="121.21" class="st54" width="111.58" height="39.36"/>
				<rect x="26.9" y="121.24" class="st55" width="111.48" height="39.27"/>
				<rect x="26.93" y="121.27" class="st56" width="111.38" height="39.19"/>
				<rect x="26.96" y="121.3" class="st57" width="111.28" height="39.1"/>
				<rect x="26.99" y="121.33" class="st58" width="111.19" height="39.02"/>
				<rect x="27.01" y="121.36" class="st59" width="111.09" height="38.93"/>
				<rect x="27.04" y="121.39" class="st60" width="110.99" height="38.85"/>
				<rect x="27.07" y="121.42" class="st61" width="110.89" height="38.76"/>
				<rect x="27.1" y="121.45" class="st62" width="110.8" height="38.68"/>
				<rect x="27.13" y="121.48" class="st63" width="110.7" height="38.59"/>
				<rect x="27.16" y="121.51" class="st64" width="110.6" height="38.51"/>
				<rect x="27.19" y="121.54" class="st65" width="110.5" height="38.42"/>
				<rect x="27.22" y="121.57" class="st66" width="110.41" height="38.34"/>
				<rect x="27.25" y="121.6" class="st67" width="110.31" height="38.25"/>
				<rect x="27.28" y="121.63" class="st68" width="110.21" height="38.17"/>
				<rect x="27.31" y="121.66" class="st69" width="110.11" height="38.08"/>
				<rect x="27.34" y="121.69" class="st70" width="110.02" height="37.99"/>
				<rect x="27.37" y="121.72" class="st71" width="109.92" height="37.91"/>
				<rect x="27.4" y="121.75" class="st72" width="109.82" height="37.82"/>
				<rect x="27.42" y="121.78" class="st73" width="109.72" height="37.74"/>
				<rect x="27.45" y="121.81" class="st74" width="109.63" height="37.65"/>
				<rect x="27.48" y="121.84" class="st75" width="109.53" height="37.57"/>
				<rect x="27.51" y="121.87" class="st76" width="109.43" height="37.48"/>
				<rect x="27.54" y="121.9" class="st77" width="109.33" height="37.4"/>
				<rect x="27.57" y="121.93" class="st78" width="109.23" height="37.31"/>
				<rect x="27.6" y="121.96" class="st79" width="109.14" height="37.23"/>
				<rect x="27.63" y="121.99" class="st80" width="109.04" height="37.14"/>
				<rect x="27.66" y="122.02" class="st81" width="108.94" height="37.06"/>
				<rect x="27.69" y="122.05" class="st82" width="108.84" height="36.97"/>
				<rect x="27.72" y="122.08" class="st83" width="108.75" height="36.89"/>
				<rect x="27.75" y="122.11" class="st84" width="108.65" height="36.8"/>
				<rect x="27.78" y="122.14" class="st85" width="108.55" height="36.72"/>
				<rect x="27.81" y="122.17" class="st86" width="108.45" height="36.63"/>
				<rect x="27.83" y="122.2" class="st87" width="108.36" height="36.54"/>
				<rect x="27.86" y="122.23" class="st88" width="108.26" height="36.46"/>
				<rect x="27.89" y="122.26" class="st89" width="108.16" height="36.37"/>
				<rect x="27.92" y="122.29" class="st90" width="108.06" height="36.29"/>
				<rect x="27.95" y="122.32" class="st91" width="107.97" height="36.2"/>
				<rect x="27.98" y="122.35" class="st92" width="107.87" height="36.12"/>
				<rect x="28.01" y="122.38" class="st93" width="107.77" height="36.03"/>
				<rect x="28.04" y="122.41" class="st94" width="107.67" height="35.95"/>
				<rect x="28.07" y="122.44" class="st95" width="107.58" height="35.86"/>
				<rect x="28.1" y="122.47" class="st96" width="107.48" height="35.78"/>
				<rect x="28.13" y="122.5" class="st97" width="107.38" height="35.69"/>
				<rect x="28.16" y="122.53" class="st98" width="107.28" height="35.61"/>
				<rect x="28.19" y="122.56" class="st99" width="107.18" height="35.52"/>
				<rect x="28.22" y="122.59" class="st100" width="107.09" height="35.44"/>
				<rect x="28.24" y="122.62" class="st101" width="106.99" height="35.35"/>
				<rect x="28.27" y="122.65" class="st102" width="106.89" height="35.26"/>
				<rect x="28.3" y="122.68" class="st103" width="106.79" height="35.18"/>
				<rect x="28.33" y="122.71" class="st104" width="106.7" height="35.09"/>
				<rect x="28.36" y="122.74" class="st105" width="106.6" height="35.01"/>
				<rect x="28.39" y="122.77" class="st106" width="106.5" height="34.92"/>
				<rect x="28.42" y="122.8" class="st107" width="106.4" height="34.84"/>
				<rect x="28.45" y="122.83" class="st108" width="106.31" height="34.75"/>
				<rect x="28.48" y="122.86" class="st109" width="106.21" height="34.67"/>
				<rect x="28.51" y="122.89" class="st110" width="106.11" height="34.58"/>
				<rect x="28.54" y="122.92" class="st111" width="106.01" height="34.5"/>
				<rect x="28.57" y="122.95" class="st112" width="105.92" height="34.41"/>
				<rect x="28.6" y="122.98" class="st113" width="105.82" height="34.33"/>
				<rect x="28.63" y="123.01" class="st114" width="105.72" height="34.24"/>
				<rect x="28.65" y="123.04" class="st115" width="105.62" height="34.16"/>
				<rect x="28.68" y="123.07" class="st116" width="105.53" height="34.07"/>
				<rect x="28.71" y="123.09" class="st117" width="105.43" height="33.99"/>
				<rect x="28.74" y="123.12" class="st118" width="105.33" height="33.9"/>
				<rect x="28.77" y="123.15" class="st119" width="105.23" height="33.81"/>
				<rect x="28.8" y="123.18" class="st120" width="105.13" height="33.73"/>
				<rect x="28.83" y="123.21" class="st121" width="105.04" height="33.64"/>
				<rect x="28.86" y="123.24" class="st122" width="104.94" height="33.56"/>
				<rect x="28.89" y="123.27" class="st123" width="104.84" height="33.47"/>
				<rect x="28.92" y="123.3" class="st124" width="104.74" height="33.39"/>
				<rect x="28.95" y="123.33" class="st125" width="104.65" height="33.3"/>
				<rect x="28.98" y="123.36" class="st126" width="104.55" height="33.22"/>
				<rect x="29.01" y="123.39" class="st127" width="104.45" height="33.13"/>
				<rect x="29.03" y="123.42" class="st128" width="104.35" height="33.05"/>
				<rect x="29.06" y="123.45" class="st129" width="104.26" height="32.96"/>
				<rect x="29.09" y="123.48" class="st130" width="104.16" height="32.88"/>
				<rect x="29.12" y="123.51" class="st131" width="104.06" height="32.79"/>
				<rect x="29.15" y="123.54" class="st132" width="103.96" height="32.71"/>
				<rect x="29.18" y="123.57" class="st133" width="103.87" height="32.62"/>
				<rect x="29.21" y="123.6" class="st134" width="103.77" height="32.53"/>
				<rect x="29.24" y="123.63" class="st135" width="103.67" height="32.45"/>
				<rect x="29.27" y="123.66" class="st136" width="103.57" height="32.36"/>
				<rect x="29.3" y="123.69" class="st137" width="103.48" height="32.28"/>
				<rect x="29.33" y="123.72" class="st138" width="103.38" height="32.19"/>
				<rect x="29.36" y="123.75" class="st139" width="103.28" height="32.11"/>
				<rect x="29.39" y="123.78" class="st140" width="103.18" height="32.02"/>
				<rect x="29.42" y="123.81" class="st141" width="103.08" height="31.94"/>
				<rect x="29.44" y="123.84" class="st142" width="102.99" height="31.85"/>
				<rect x="29.47" y="123.87" class="st143" width="102.89" height="31.77"/>
				<rect x="29.5" y="123.9" class="st144" width="102.79" height="31.68"/>
				<rect x="29.53" y="123.93" class="st145" width="102.69" height="31.6"/>
				<rect x="29.56" y="123.96" class="st146" width="102.6" height="31.51"/>
				<rect x="29.59" y="123.99" class="st147" width="102.5" height="31.43"/>
				<rect x="29.62" y="124.02" class="st148" width="102.4" height="31.34"/>
				<rect x="29.65" y="124.05" class="st149" width="102.3" height="31.26"/>
				<rect x="29.68" y="124.08" class="st150" width="102.21" height="31.17"/>
				<rect x="29.71" y="124.11" class="st151" width="102.11" height="31.08"/>
				<rect x="29.74" y="124.14" class="st152" width="102.01" height="31"/>
				<rect x="29.77" y="124.17" class="st153" width="101.91" height="30.91"/>
				<rect x="29.8" y="124.2" class="st154" width="101.82" height="30.83"/>
			</g>
			<rect x="24.7" y="118.51" class="st155" width="104.81" height="34.08"/>
			<g>
				<g>
					<rect x="72.39" y="124.42" class="st154" width="38.45" height="2.57"/>
				</g>
				<g>
					<rect x="72.39" y="129.92" class="st154" width="43.87" height="1.92"/>
				</g>
				<g>
					<rect x="72.21" y="134.41" class="st154" width="38.29" height="1.94"/>
				</g>
				<g>
					<rect x="72.21" y="138.76" class="st154" width="42.64" height="1.92"/>
				</g>
				<g>
					<rect x="72.21" y="143.44" class="st154" width="9.53" height="1.92"/>
				</g>
			</g>
			<rect x="30.09" y="124.56" class="st17" width="38.7" height="22.57"/>
			<path class="st5" d="M49.43,132.03c-2.11,0-3.8,1.7-3.8,3.81c0,2.1,1.7,3.8,3.8,3.8c2.1,0,3.81-1.7,3.81-3.8
				C53.24,133.73,51.53,132.03,49.43,132.03z M50.98,135.87l-2.53,1.46c-0.02,0.01-0.03,0.02-0.04,0.02c0-0.01,0-0.02,0-0.04v-2.93
				c0-0.03,0-0.04,0-0.04c0,0,0.02,0.01,0.04,0.01l2.53,1.46c0.02,0.01,0.03,0.02,0.03,0.03C51.01,135.85,51,135.85,50.98,135.87z"
				/>
		</g>
	</g>
</g>
<g>
	<circle class="st15" cx="79.49" cy="40.74" r="1.77"/>
	<circle class="st15" cx="93.31" cy="80.17" r="1.77"/>
	<path class="st15" d="M94.25,91.87c-0.14,0.39-0.58,0.6-0.97,0.45c-0.39-0.14-0.6-0.58-0.45-0.97c0.14-0.39,0.58-0.6,0.97-0.45
		C94.19,91.04,94.39,91.48,94.25,91.87z"/>
	<path class="st15" d="M102.71,42.88c-0.14,0.39-0.58,0.6-0.97,0.45c-0.39-0.14-0.6-0.58-0.45-0.97c0.14-0.39,0.58-0.6,0.97-0.45
		C102.65,42.05,102.85,42.49,102.71,42.88z"/>
	<path class="st15" d="M71.2,66.9c-0.14,0.39-0.58,0.6-0.97,0.45c-0.39-0.14-0.6-0.58-0.45-0.97c0.14-0.39,0.58-0.6,0.97-0.45
		C71.14,66.07,71.34,66.5,71.2,66.9z"/>
	<path class="st15" d="M94.77,62.31c-0.14,0.39-0.58,0.6-0.97,0.45c-0.39-0.14-0.6-0.58-0.45-0.97c0.14-0.39,0.58-0.6,0.97-0.45
		C94.72,61.48,94.92,61.91,94.77,62.31z"/>
	<circle class="st15" cx="82.81" cy="33.03" r="0.76"/>
	<path class="st15" d="M114.39,56.68c-0.07,0.2-0.29,0.3-0.49,0.23c-0.2-0.07-0.3-0.29-0.23-0.49c0.07-0.2,0.29-0.3,0.49-0.23
		C114.36,56.27,114.46,56.49,114.39,56.68z"/>
	<path class="st15" d="M54.54,75.93c-0.14,0.39-0.58,0.6-0.97,0.45c-0.39-0.14-0.6-0.58-0.45-0.97c0.14-0.39,0.58-0.6,0.97-0.45
		C54.49,75.1,54.69,75.54,54.54,75.93z"/>
	<path class="st15" d="M91.81,49.43c-0.16,0.44-0.66,0.67-1.1,0.51c-0.44-0.16-0.67-0.66-0.51-1.1c0.16-0.44,0.66-0.67,1.1-0.51
		C91.75,48.49,91.98,48.99,91.81,49.43z"/>
	<path class="st15" d="M68.41,53.45c-0.16,0.44-0.66,0.67-1.1,0.51c-0.44-0.16-0.67-0.66-0.51-1.1c0.16-0.44,0.66-0.67,1.1-0.51
		C68.35,52.51,68.58,53,68.41,53.45z"/>
	<path class="st15" d="M85.96,52.59c-0.18,0.48-0.71,0.72-1.18,0.55c-0.48-0.18-0.72-0.7-0.55-1.18c0.18-0.48,0.7-0.72,1.18-0.55
		C85.89,51.59,86.14,52.12,85.96,52.59z"/>
</g>
<g>
	<polygon class="st156" points="225.23,185.45 225.22,211.02 247.39,188.87 	"/>
	<path class="st5" d="M272.67,196.77c0,1.82-1.47,3.28-3.29,3.28l-90.68-0.02c-1.81,0-3.28-1.47-3.28-3.29l0.01-63.48
		c0-1.81,1.47-3.28,3.29-3.28l90.68,0.02c1.82,0,3.29,1.47,3.29,3.28L272.67,196.77z"/>
	<path class="st0" d="M193.88,140.7c0,2.76-2.24,5-5.01,5c-2.76,0-5-2.24-5-5.01c0-2.76,2.24-5,5.01-5
		C191.64,135.7,193.88,137.94,193.88,140.7z"/>
	<g>
		<rect x="198.26" y="142.11" class="st22" width="51.6" height="2.19"/>
		<rect x="198.26" y="137.11" class="st22" width="29.08" height="2.19"/>
	</g>
	<g>
		<rect x="184.14" y="150.64" class="st18" width="80.72" height="41.24"/>
		<polygon class="st5" points="226.49,171.27 223.46,173.01 220.44,174.76 220.44,171.26 220.44,167.77 223.46,169.52 		"/>
		<circle class="st157" cx="223.46" cy="171.26" r="11.08"/>
	</g>
</g>
<g>
	
		<linearGradient id="SVGID_3_" gradientUnits="userSpaceOnUse" x1="-1011.878" y1="1174.6837" x2="-973.5853" y2="1174.6837" gradientTransform="matrix(-0.9778 0.2093 0.2093 0.9778 -1126.7017 -891.9813)">
		<stop  offset="0" style="stop-color:#AE4593"/>
		<stop  offset="1" style="stop-color:#10BAE7"/>
	</linearGradient>
	<path class="st11" d="M100.88,25.72c0,0,8.66,8.2,6.75,23.18c-1.19,9.35-8.79,23.34-32.33,23.11c0,0,9-1.24,15-4.62
		c0,0-1.21-2.13-8.44-1.98c-9.48,0.19-8.23-2.24-6.33-6.9c2.67-6.57,5.44-9.93,23.75-3.32c0,0-7.73-5.43-9.82-14.44
		C88.02,34.47,91.62,25.15,100.88,25.72z"/>
	
		<linearGradient id="SVGID_4_" gradientUnits="userSpaceOnUse" x1="-1257.2014" y1="593.7784" x2="-1204.8696" y2="606.6285" gradientTransform="matrix(-0.6884 -0.633 -0.6769 0.7361 -360.3729 -1175.1738)">
		<stop  offset="0" style="stop-color:#AE4593"/>
		<stop  offset="1" style="stop-color:#10BAE7"/>
	</linearGradient>
	<path class="st12" d="M106.49,30.58c0,0,4.92,4.89,3.1,18.52c-1.52,11.38-17.45,24.92-34.28,22.91c0,0,10.59-0.07,16.12-3.89
		c0,0-0.7-1.66-6.78-0.46c-7.98,1.57-6.56-0.71-4.28-5.02c3.22-6.07,6.03-9.38,20.4-6.4c0,0-5.67-3.54-6.08-11.01
		C94.4,40.05,98.81,31.46,106.49,30.58z"/>
	
		<linearGradient id="SVGID_5_" gradientUnits="userSpaceOnUse" x1="-1030.3722" y1="1162.0906" x2="-1007.772" y2="1173.2006" gradientTransform="matrix(-0.9778 0.2093 0.2093 0.9778 -1126.7017 -891.9813)">
		<stop  offset="5.010000e-04" style="stop-color:#574595"/>
		<stop  offset="0.0923" style="stop-color:#5963A2"/>
		<stop  offset="0.196" style="stop-color:#5B7EAC"/>
		<stop  offset="0.3053" style="stop-color:#5F94B2"/>
		<stop  offset="0.4191" style="stop-color:#64A5B3"/>
		<stop  offset="0.539" style="stop-color:#68B2B3"/>
		<stop  offset="0.6676" style="stop-color:#6CBBB3"/>
		<stop  offset="0.8112" style="stop-color:#6FC0B2"/>
		<stop  offset="1" style="stop-color:#70C2B2"/>
	</linearGradient>
	<path style="opacity:0.3;fill:url(#SVGID_5_);" d="M108.91,28.9c0,0,6.58,8.9,1.71,22.82c-3.04,8.69-15.02,18.84-35.31,20.29
		c0,0,10.55-2.22,15.05-5.09c0,0-0.72-2.17-7.64-2.99c-9.07-1.07-7.38-3.2-4.62-7.36c3.88-5.86,7.2-8.67,23.29-0.01
		c0,0-6.26-6.16-6.41-14.95C94.87,35.49,100.21,27.14,108.91,28.9z"/>
</g>
</svg>
